<svg width="113" height="100" viewBox="0 0 113 100" fill="none" xmlns="http://www.w3.org/2000/svg">
<path d="M108.051 56.6338C107.67 55.2249 106.353 54.2628 104.897 54.2628H77.2056L90.4103 18.5252C91.0341 16.8414 90.1677 14.9858 88.4694 14.3673C86.7712 13.7488 84.8997 14.6078 84.2758 16.2916L69.4423 56.3933C69.0611 57.3898 69.2343 58.4894 69.8235 59.3485C70.4473 60.2076 71.4524 60.723 72.4922 60.723H93.3215L46.7414 89.1413L71.799 18.4565C71.8337 18.3534 71.8683 18.2503 71.8683 18.1816C71.8683 18.1472 71.8683 18.1129 71.903 18.0785C71.903 18.0098 71.9376 17.941 71.9376 17.8723C71.9376 17.838 71.9376 17.8036 71.9376 17.7692C71.9376 17.7005 71.9376 17.6318 71.9376 17.5974C71.9376 17.5631 71.9376 17.5287 71.9376 17.4943C71.9376 17.3912 71.9376 17.3225 71.9376 17.2194C71.9376 17.1851 71.9376 17.1507 71.9376 17.1163C71.9376 17.0476 71.9376 17.0132 71.903 16.9445C71.903 16.9102 71.903 16.8758 71.8683 16.8414C71.8683 16.7727 71.8337 16.7383 71.8337 16.6696C71.8337 16.6353 71.8337 16.6009 71.799 16.5665C71.7644 16.4978 71.7644 16.4291 71.7297 16.3603V16.326C71.695 16.2229 71.6604 16.1542 71.6257 16.0511C71.6257 16.0167 71.5911 16.0167 71.5911 15.9824C71.5564 15.9136 71.5218 15.8793 71.4871 15.8105C71.4871 15.7762 71.4524 15.7418 71.4178 15.7418C71.3831 15.6731 71.3485 15.6387 71.3138 15.57C71.2791 15.5356 71.2791 15.5013 71.2445 15.5013C71.2098 15.4325 71.1405 15.3982 71.1059 15.3295C71.0712 15.2951 71.0712 15.2607 71.0365 15.2607C70.9672 15.192 70.9326 15.1576 70.8632 15.0889C70.8286 15.0546 70.7939 15.0202 70.7593 14.9858C70.7246 14.9515 70.7246 14.9515 70.69 14.9171C70.69 14.9171 70.69 14.9171 70.6553 14.9171C70.5167 14.814 70.4127 14.7453 70.2741 14.6422C70.2394 14.6422 70.2394 14.6078 70.2048 14.6078C70.1008 14.5391 69.9621 14.5047 69.8582 14.436C69.8235 14.436 69.7889 14.4017 69.7542 14.4017C69.7542 14.4017 69.7195 14.4017 69.7195 14.3673C69.5809 14.3329 69.4769 14.2986 69.3383 14.2642C69.3036 14.2642 69.269 14.2642 69.269 14.2642C69.1304 14.2298 68.9917 14.2298 68.8878 14.1955C68.8531 14.1955 68.8531 14.1955 68.8184 14.1955C68.6798 14.1955 68.5065 14.1955 68.3679 14.1955C68.3332 14.1955 68.3332 14.1955 68.2986 14.1955C68.1599 14.1955 68.0213 14.2298 67.8827 14.2642H67.848C67.7094 14.2986 67.5708 14.3329 67.4321 14.4017C67.3975 14.4017 67.3628 14.436 67.3282 14.436C67.1895 14.5047 67.0509 14.5735 66.9469 14.6422L2.2061 54.7782C0.958418 55.5342 0.403893 57.0462 0.785129 58.4207C1.20102 59.7952 2.48336 60.7574 3.93899 60.7574H30.8335L18.2527 95.6359C17.6288 97.3197 18.5299 99.1753 20.2282 99.7938C20.6094 99.9313 20.956 100 21.3372 100C22.6889 100 23.9366 99.1753 24.4218 97.8351L38.5968 58.6269C38.9434 57.6304 38.8048 56.5307 38.1809 55.6717C37.5571 54.8126 36.5867 54.2971 35.5123 54.2971H15.3761L62.58 25.0886L37.5571 95.6702C37.5224 95.7733 37.4878 95.8764 37.4878 95.9452C37.4878 95.9795 37.4878 96.0139 37.4531 96.0482C37.4531 96.117 37.4185 96.1857 37.4185 96.2544C37.4185 96.2888 37.4185 96.3232 37.4185 96.3575C37.4185 96.4262 37.4185 96.495 37.4185 96.5637C37.4185 96.598 37.4185 96.6324 37.4185 96.6668C37.4185 96.7699 37.4185 96.8386 37.4185 96.9417C37.4185 96.976 37.4185 97.0104 37.4185 97.0448C37.4185 97.1135 37.4184 97.1479 37.4531 97.2166C37.4531 97.251 37.4531 97.2853 37.4878 97.3197C37.4878 97.3884 37.5224 97.4228 37.5224 97.4915C37.5224 97.5258 37.5224 97.5602 37.5571 97.5946C37.5917 97.6633 37.5917 97.7664 37.6264 97.8351V97.8695C37.6611 97.9726 37.6957 98.0413 37.7304 98.1444C37.7304 98.1787 37.765 98.1787 37.765 98.2131C37.7997 98.2818 37.8343 98.3506 37.869 98.3849C37.869 98.4193 37.9037 98.4537 37.9037 98.4537C37.9383 98.5224 37.973 98.5567 38.0076 98.6255C38.0423 98.6598 38.0423 98.6598 38.0769 98.6942C38.1116 98.7629 38.1809 98.8316 38.2156 98.866C38.2502 98.9004 38.2502 98.9347 38.2849 98.9347C38.3196 98.9691 38.3889 99.0378 38.4235 99.0722C38.4582 99.1066 38.4928 99.1409 38.5275 99.1753C38.5622 99.2096 38.5622 99.2096 38.5968 99.244C38.5968 99.244 38.6315 99.244 38.6315 99.2784C38.7701 99.3815 38.8741 99.4502 39.0127 99.5533C39.0474 99.5533 39.0474 99.5876 39.082 99.5876C39.186 99.6564 39.3246 99.6907 39.4286 99.7595C39.4633 99.7595 39.4979 99.7938 39.5326 99.7938C39.5672 99.7938 39.5672 99.7938 39.6019 99.8282C39.7059 99.8625 39.8445 99.8969 39.9485 99.9313C39.9831 99.9313 39.9831 99.9313 40.0178 99.9313C40.1564 99.9656 40.2951 99.9656 40.4683 100H40.503C40.5723 100 40.607 100 40.6763 100C40.7803 100 40.8496 100 40.9535 100C40.9535 100 40.9536 100 40.9882 100C41.1268 100 41.3001 99.9656 41.4388 99.9313H41.4734C41.612 99.8969 41.7853 99.8625 41.924 99.7938C41.924 99.7938 41.9586 99.7938 41.9586 99.7595C42.0973 99.6907 42.2359 99.622 42.3745 99.5533L106.665 60.345C107.843 59.5203 108.432 58.0427 108.051 56.6338Z" fill="white"/>
<path d="M110.458 9.99998C110.458 14.4873 106.82 18.125 102.333 18.125C97.8457 18.125 94.208 14.4873 94.208 9.99998C94.208 5.51267 97.8457 1.87498 102.333 1.87498C106.82 1.87498 110.458 5.51267 110.458 9.99998Z" stroke="white" stroke-width="1.25"/>
<path d="M102.75 11.1666H100.875V14.9166H99.208V5.20831H102.625C103.166 5.20831 103.666 5.29165 104.125 5.41665C104.541 5.54165 104.916 5.74998 105.208 5.95831C105.5 6.20831 105.75 6.49998 105.875 6.87498C106 7.24998 106.125 7.66665 106.125 8.12498C106.125 8.79165 105.958 9.33331 105.666 9.74998C105.333 10.1666 104.916 10.5416 104.375 10.75L106.541 14.7916V14.875H104.75L102.75 11.1666ZM100.875 9.83331H102.625C102.916 9.83331 103.208 9.79165 103.416 9.70831C103.625 9.62498 103.833 9.49998 104 9.37498C104.166 9.24998 104.25 9.08331 104.333 8.87498C104.416 8.66665 104.458 8.45831 104.458 8.20831C104.458 7.95831 104.416 7.74998 104.333 7.54165C104.25 7.33331 104.166 7.16665 104 7.04165C103.833 6.91665 103.666 6.79165 103.416 6.70831C103.208 6.62498 102.916 6.58331 102.583 6.58331H100.875V9.83331Z" fill="white"/>
</svg>
